ffmpeg started on 2025-05-28 at 21:29:23
Report written to "D:\Convert\FFMetrics\reports\ssim_report-6.txt"
Log level: 32
Command line:
ffmpeg -hide_banner -nostdin -i "G:\\\xc0\xed\xe8\xec\xe5\\\xce\xed\xe3\xee\xe8\xed\xe3\xe8\\!_36_\xce\xf1\xe5\xed\xfc_2024\\JamClub\\\xcb\xfe\xe1\xee\xe2\xfc \xcc\xf3\xf0\xe0\xe8\\JamClub_Murai_no_Koi_05_720p_HEVC.mkv" -i "G:\\\xc0\xed\xe8\xec\xe5\\\xce\xed\xe3\xee\xe8\xed\xe3\xe8\\!_36_\xce\xf1\xe5\xed\xfc_2024\\JamClub\\\xcb\xfe\xe1\xee\xe2\xfc \xcc\xf3\xf0\xe0\xe8\\JamClub_Murai_no_Koi_05_720p.mp4" -lavfi "[0:v]settb=AVTB,setpts=PTS-STARTPTS,format=pix_fmts=yuv420p10,fps=24000/1001,scale=1920:1080:flags=bicubic[main];[1:v]settb=AVTB,setpts=PTS-STARTPTS,format=pix_fmts=yuv420p,fps=24000/1001,scale=1920:1080:flags=bicubic[ref];[main][ref]ssim=eof_action=endall:stats_file='D\\:/Convert/FFMetrics/logs/ssim_logfile-6.txt'" -f null -
Input #0, matroska,webm, from 'G:\Аниме\Онгоинги\!_36_Осень_2024\JamClub\Любовь Мураи\JamClub_Murai_no_Koi_05_720p_HEVC.mkv':
  Metadata:
    COMPATIBLE_BRANDS: isomiso2avc1mp41
    MAJOR_BRAND     : isom
    MINOR_VERSION   : 512
    ENCODER         : Lavf61.7.100
  Duration: 00:24:04.21, start: -0.021000, bitrate: 1411 kb/s
  Stream #0:0: Video: hevc (Main 10), yuv420p10le(tv, bt709, progressive), 1920x1080 [SAR 1:1 DAR 16:9], 23.98 fps, 23.98 tbr, 1k tbn (default)
      Metadata:
        HANDLER_NAME    : VideoHandler
        VENDOR_ID       : [0][0][0][0]
        ENCODER         : Lavc61.19.100 libx265
        BPS             : 1213369
        DURATION        : 00:24:04.108708333
        NUMBER_OF_FRAMES: 34624
        NUMBER_OF_BYTES : 219029605
        _STATISTICS_WRITING_APP: mkvpropedit v66.0.0 ('Josie') 64-bit
        _STATISTICS_WRITING_DATE_UTC: 2025-05-28 12:33:23
        _STATISTICS_TAGS: BPS DURATION NUMBER_OF_FRAMES NUMBER_OF_BYTES
  Stream #0:1(eng): Audio: aac (LC), 48000 Hz, stereo, fltp (default)
      Metadata:
        HANDLER_NAME    : SoundHandler
        VENDOR_ID       : [0][0][0][0]
        ENCODER         : Lavc61.19.100 aac
        BPS             : 193954
        DURATION        : 00:24:04.184000000
        NUMBER_OF_FRAMES: 67697
        NUMBER_OF_BYTES : 35013312
        _STATISTICS_WRITING_APP: mkvpropedit v66.0.0 ('Josie') 64-bit
        _STATISTICS_WRITING_DATE_UTC: 2025-05-28 12:33:23
        _STATISTICS_TAGS: BPS DURATION NUMBER_OF_FRAMES NUMBER_OF_BYTES
Input #1, mov,mp4,m4a,3gp,3g2,mj2, from 'G:\Аниме\Онгоинги\!_36_Осень_2024\JamClub\Любовь Мураи\JamClub_Murai_no_Koi_05_720p.mp4':
  Metadata:
    major_brand     : isom
    minor_version   : 512
    compatible_brands: isomiso2avc1mp41
    encoder         : Lavf60.16.100
  Duration: 00:24:04.18, start: 0.000000, bitrate: 4211 kb/s
  Stream #1:0[0x1](und): Video: h264 (High) (avc1 / 0x31637661), yuv420p(tv, bt709, progressive), 1920x1080 [SAR 1:1 DAR 16:9], 4013 kb/s, 23.98 fps, 23.98 tbr, 90k tbn (default)
      Metadata:
        handler_name    : VideoHandler
        vendor_id       : [0][0][0][0]
  Stream #1:1[0x2](eng): Audio: aac (LC) (mp4a / 0x6134706D), 48000 Hz, stereo, fltp, 191 kb/s (default)
      Metadata:
        handler_name    : SoundHandler
        vendor_id       : [0][0][0][0]
Stream mapping:
  Stream #0:0 (hevc) -> settb:default
  Stream #1:0 (h264) -> settb:default
  ssim:default -> Stream #0:0 (wrapped_avframe)
  Stream #0:1 -> #0:1 (aac (native) -> pcm_s16le (native))
Output #0, null, to 'pipe:':
  Metadata:
    COMPATIBLE_BRANDS: isomiso2avc1mp41
    MAJOR_BRAND     : isom
    MINOR_VERSION   : 512
    encoder         : Lavf61.7.100
  Stream #0:0: Video: wrapped_avframe, yuv420p10le(tv, bt709, progressive), 1920x1080 [SAR 1:1 DAR 16:9], q=2-31, 200 kb/s, 23.98 fps, 23.98 tbn
      Metadata:
        encoder         : Lavc61.19.100 wrapped_avframe
  Stream #0:1(eng): Audio: pcm_s16le, 48000 Hz, stereo, s16, 1536 kb/s (default)
      Metadata:
        HANDLER_NAME    : SoundHandler
        VENDOR_ID       : [0][0][0][0]
        _STATISTICS_TAGS: BPS DURATION NUMBER_OF_FRAMES NUMBER_OF_BYTES
        BPS             : 193954
        DURATION        : 00:24:04.184000000
        NUMBER_OF_FRAMES: 67697
        NUMBER_OF_BYTES : 35013312
        _STATISTICS_WRITING_APP: mkvpropedit v66.0.0 ('Josie') 64-bit
        _STATISTICS_WRITING_DATE_UTC: 2025-05-28 12:33:23
        encoder         : Lavc61.19.100 pcm_s16le
frame=  120 fps=0.0 q=-0.0 size=N/A time=00:00:05.00 bitrate=N/A speed=9.58x    frame=  286 fps=278 q=-0.0 size=N/A time=00:00:11.92 bitrate=N/A speed=11.6x    frame=  498 fps=321 q=-0.0 size=N/A time=00:00:20.77 bitrate=N/A speed=13.4x    frame=  675 fps=328 q=-0.0 size=N/A time=00:00:28.15 bitrate=N/A speed=13.7x    frame=  842 fps=326 q=-0.0 size=N/A time=00:00:35.11 bitrate=N/A speed=13.6x    frame=  989 fps=319 q=-0.0 size=N/A time=00:00:41.24 bitrate=N/A speed=13.3x    frame= 1146 fps=317 q=-0.0 size=N/A time=00:00:47.79 bitrate=N/A speed=13.2x    frame= 1349 fps=326 q=-0.0 size=N/A time=00:00:56.26 bitrate=N/A speed=13.6x    frame= 1488 fps=320 q=-0.0 size=N/A time=00:01:02.06 bitrate=N/A speed=13.4x    frame= 1702 fps=330 q=-0.0 size=N/A time=00:01:10.98 bitrate=N/A speed=13.8x    frame= 1878 fps=331 q=-0.0 size=N/A time=00:01:18.32 bitrate=N/A speed=13.8x    frame= 2017 fps=326 q=-0.0 size=N/A time=00:01:24.12 bitrate=N/A speed=13.6x    frame= 2169 fps=324 q=-0.0 size=N/A time=00:01:30.46 bitrate=N/A speed=13.5x    frame= 2363 fps=327 q=-0.0 size=N/A time=00:01:38.55 bitrate=N/A speed=13.6x    frame= 2550 fps=330 q=-0.0 size=N/A time=00:01:46.35 bitrate=N/A speed=13.8x    frame= 2793 fps=338 q=-0.0 size=N/A time=00:01:56.49 bitrate=N/A speed=14.1x    frame= 3077 fps=351 q=-0.0 size=N/A time=00:02:08.33 bitrate=N/A speed=14.6x    frame= 3296 fps=355 q=-0.0 size=N/A time=00:02:17.47 bitrate=N/A speed=14.8x    frame= 3540 fps=361 q=-0.0 size=N/A time=00:02:27.64 bitrate=N/A speed=15.1x    frame= 3758 fps=365 q=-0.0 size=N/A time=00:02:36.73 bitrate=N/A speed=15.2x    frame= 4012 fps=370 q=-0.0 size=N/A time=00:02:47.33 bitrate=N/A speed=15.4x    frame= 4259 fps=375 q=-0.0 size=N/A time=00:02:57.63 bitrate=N/A speed=15.6x    frame= 4544 fps=383 q=-0.0 size=N/A time=00:03:09.52 bitrate=N/A speed=  16x    frame= 4805 fps=388 q=-0.0 size=N/A time=00:03:20.40 bitrate=N/A speed=16.2x    frame= 5082 fps=394 q=-0.0 size=N/A time=00:03:31.96 bitrate=N/A speed=16.4x    frame= 5364 fps=400 q=-0.0 size=N/A time=00:03:43.72 bitrate=N/A speed=16.7x    frame= 5606 fps=402 q=-0.0 size=N/A time=00:03:53.81 bitrate=N/A speed=16.8x    frame= 5849 fps=405 q=-0.0 size=N/A time=00:04:03.95 bitrate=N/A speed=16.9x    frame= 6106 fps=408 q=-0.0 size=N/A time=00:04:14.67 bitrate=N/A speed=  17x    frame= 6362 fps=411 q=-0.0 size=N/A time=00:04:25.34 bitrate=N/A speed=17.1x    frame= 6614 fps=413 q=-0.0 size=N/A time=00:04:35.85 bitrate=N/A speed=17.2x    frame= 6871 fps=416 q=-0.0 size=N/A time=00:04:46.57 bitrate=N/A speed=17.3x    frame= 7123 fps=418 q=-0.0 size=N/A time=00:04:57.08 bitrate=N/A speed=17.4x    frame= 7363 fps=420 q=-0.0 size=N/A time=00:05:07.09 bitrate=N/A speed=17.5x    frame= 7617 fps=422 q=-0.0 size=N/A time=00:05:17.73 bitrate=N/A speed=17.6x    frame= 7880 fps=424 q=-0.0 size=N/A time=00:05:28.66 bitrate=N/A speed=17.7x    frame= 8126 fps=426 q=-0.0 size=N/A time=00:05:38.92 bitrate=N/A speed=17.7x    frame= 8359 fps=426 q=-0.0 size=N/A time=00:05:48.63 bitrate=N/A speed=17.8x    frame= 8630 fps=429 q=-0.0 size=N/A time=00:05:59.94 bitrate=N/A speed=17.9x    frame= 8903 fps=431 q=-0.0 size=N/A time=00:06:11.32 bitrate=N/A speed=  18x    frame= 9167 fps=433 q=-0.0 size=N/A time=00:06:22.34 bitrate=N/A speed=18.1x    frame= 9408 fps=434 q=-0.0 size=N/A time=00:06:32.39 bitrate=N/A speed=18.1x    frame= 9678 fps=436 q=-0.0 size=N/A time=00:06:43.65 bitrate=N/A speed=18.2x    frame= 9955 fps=438 q=-0.0 size=N/A time=00:06:55.20 bitrate=N/A speed=18.3x    frame=10161 fps=437 q=-0.0 size=N/A time=00:07:03.79 bitrate=N/A speed=18.2x    frame=10345 fps=436 q=-0.0 size=N/A time=00:07:11.47 bitrate=N/A speed=18.2x    frame=10573 fps=436 q=-0.0 size=N/A time=00:07:20.98 bitrate=N/A speed=18.2x    frame=10825 fps=437 q=-0.0 size=N/A time=00:07:31.49 bitrate=N/A speed=18.2x    frame=11064 fps=438 q=-0.0 size=N/A time=00:07:41.46 bitrate=N/A speed=18.3x    frame=11304 fps=438 q=-0.0 size=N/A time=00:07:51.47 bitrate=N/A speed=18.3x    frame=11532 fps=438 q=-0.0 size=N/A time=00:08:00.98 bitrate=N/A speed=18.3x    frame=11757 fps=438 q=-0.0 size=N/A time=00:08:10.36 bitrate=N/A speed=18.3x    frame=12000 fps=439 q=-0.0 size=N/A time=00:08:20.50 bitrate=N/A speed=18.3x    frame=12258 fps=440 q=-0.0 size=N/A time=00:08:31.26 bitrate=N/A speed=18.4x    frame=12532 fps=442 q=-0.0 size=N/A time=00:08:42.68 bitrate=N/A speed=18.4x    frame=12791 fps=443 q=-0.0 size=N/A time=00:08:53.49 bitrate=N/A speed=18.5x    frame=13014 fps=443 q=-0.0 size=N/A time=00:09:02.79 bitrate=N/A speed=18.5x    frame=13231 fps=442 q=-0.0 size=N/A time=00:09:11.84 bitrate=N/A speed=18.4x    frame=13486 fps=443 q=-0.0 size=N/A time=00:09:22.47 bitrate=N/A speed=18.5x    frame=13730 fps=443 q=-0.0 size=N/A time=00:09:32.65 bitrate=N/A speed=18.5x    frame=13978 fps=444 q=-0.0 size=N/A time=00:09:42.99 bitrate=N/A speed=18.5x    frame=14229 fps=445 q=-0.0 size=N/A time=00:09:53.46 bitrate=N/A speed=18.6x    frame=14475 fps=445 q=-0.0 size=N/A time=00:10:03.72 bitrate=N/A speed=18.6x    frame=14731 fps=446 q=-0.0 size=N/A time=00:10:14.40 bitrate=N/A speed=18.6x    frame=14977 fps=447 q=-0.0 size=N/A time=00:10:24.66 bitrate=N/A speed=18.6x    frame=15192 fps=446 q=-0.0 size=N/A time=00:10:33.63 bitrate=N/A speed=18.6x    frame=15455 fps=447 q=-0.0 size=N/A time=00:10:44.60 bitrate=N/A speed=18.6x    frame=15715 fps=448 q=-0.0 size=N/A time=00:10:55.44 bitrate=N/A speed=18.7x    frame=15955 fps=448 q=-0.0 size=N/A time=00:11:05.45 bitrate=N/A speed=18.7x    frame=16189 fps=448 q=-0.0 size=N/A time=00:11:15.21 bitrate=N/A speed=18.7x    frame=16422 fps=448 q=-0.0 size=N/A time=00:11:24.93 bitrate=N/A speed=18.7x    frame=16650 fps=448 q=-0.0 size=N/A time=00:11:34.44 bitrate=N/A speed=18.7x    frame=16881 fps=448 q=-0.0 size=N/A time=00:11:44.07 bitrate=N/A speed=18.7x    frame=17144 fps=449 q=-0.0 size=N/A time=00:11:55.04 bitrate=N/A speed=18.7x    frame=17412 fps=450 q=-0.0 size=N/A time=00:12:06.22 bitrate=N/A speed=18.8x    frame=17689 fps=451 q=-0.0 size=N/A time=00:12:17.77 bitrate=N/A speed=18.8x    frame=17977 fps=452 q=-0.0 size=N/A time=00:12:29.79 bitrate=N/A speed=18.9x    frame=18225 fps=453 q=-0.0 size=N/A time=00:12:40.13 bitrate=N/A speed=18.9x    frame=18467 fps=453 q=-0.0 size=N/A time=00:12:50.22 bitrate=N/A speed=18.9x    frame=18724 fps=454 q=-0.0 size=N/A time=00:13:00.94 bitrate=N/A speed=18.9x    frame=18970 fps=454 q=-0.0 size=N/A time=00:13:11.20 bitrate=N/A speed=18.9x    frame=19231 fps=455 q=-0.0 size=N/A time=00:13:22.09 bitrate=N/A speed=  19x    frame=19472 fps=455 q=-0.0 size=N/A time=00:13:32.14 bitrate=N/A speed=  19x    frame=19735 fps=455 q=-0.0 size=N/A time=00:13:43.11 bitrate=N/A speed=  19x    frame=19976 fps=456 q=-0.0 size=N/A time=00:13:53.16 bitrate=N/A speed=  19x    frame=20228 fps=456 q=-0.0 size=N/A time=00:14:03.67 bitrate=N/A speed=  19x    frame=20494 fps=457 q=-0.0 size=N/A time=00:14:14.77 bitrate=N/A speed=  19x    frame=20758 fps=457 q=-0.0 size=N/A time=00:14:25.78 bitrate=N/A speed=19.1x    frame=21014 fps=458 q=-0.0 size=N/A time=00:14:36.45 bitrate=N/A speed=19.1x    frame=21259 fps=458 q=-0.0 size=N/A time=00:14:46.67 bitrate=N/A speed=19.1x    frame=21514 fps=458 q=-0.0 size=N/A time=00:14:57.31 bitrate=N/A speed=19.1x    frame=21774 fps=459 q=-0.0 size=N/A time=00:15:08.15 bitrate=N/A speed=19.1x    frame=21985 fps=458 q=-0.0 size=N/A time=00:15:16.95 bitrate=N/A speed=19.1x    frame=22217 fps=458 q=-0.0 size=N/A time=00:15:26.63 bitrate=N/A speed=19.1x    frame=22484 fps=459 q=-0.0 size=N/A time=00:15:37.77 bitrate=N/A speed=19.1x    frame=22723 fps=459 q=-0.0 size=N/A time=00:15:47.73 bitrate=N/A speed=19.1x    frame=22982 fps=459 q=-0.0 size=N/A time=00:15:58.54 bitrate=N/A speed=19.2x    frame=23220 fps=459 q=-0.0 size=N/A time=00:16:08.46 bitrate=N/A speed=19.2x    frame=23475 fps=460 q=-0.0 size=N/A time=00:16:19.10 bitrate=N/A speed=19.2x    frame=23723 fps=460 q=-0.0 size=N/A time=00:16:29.44 bitrate=N/A speed=19.2x    frame=23977 fps=460 q=-0.0 size=N/A time=00:16:40.04 bitrate=N/A speed=19.2x    frame=24230 fps=461 q=-0.0 size=N/A time=00:16:50.59 bitrate=N/A speed=19.2x    frame=24466 fps=460 q=-0.0 size=N/A time=00:17:00.43 bitrate=N/A speed=19.2x    frame=24744 fps=461 q=-0.0 size=N/A time=00:17:12.03 bitrate=N/A speed=19.2x    frame=25012 fps=462 q=-0.0 size=N/A time=00:17:23.20 bitrate=N/A speed=19.3x    frame=25255 fps=462 q=-0.0 size=N/A time=00:17:33.34 bitrate=N/A speed=19.3x    frame=25528 fps=463 q=-0.0 size=N/A time=00:17:44.73 bitrate=N/A speed=19.3x    frame=25797 fps=463 q=-0.0 size=N/A time=00:17:55.94 bitrate=N/A speed=19.3x    frame=26033 fps=463 q=-0.0 size=N/A time=00:18:05.79 bitrate=N/A speed=19.3x    frame=26288 fps=463 q=-0.0 size=N/A time=00:18:16.42 bitrate=N/A speed=19.3x    frame=26530 fps=463 q=-0.0 size=N/A time=00:18:26.52 bitrate=N/A speed=19.3x    frame=26802 fps=464 q=-0.0 size=N/A time=00:18:37.86 bitrate=N/A speed=19.3x    frame=27068 fps=464 q=-0.0 size=N/A time=00:18:48.96 bitrate=N/A speed=19.4x    frame=27303 fps=464 q=-0.0 size=N/A time=00:18:58.76 bitrate=N/A speed=19.4x    frame=27509 fps=464 q=-0.0 size=N/A time=00:19:07.35 bitrate=N/A speed=19.3x    frame=27715 fps=463 q=-0.0 size=N/A time=00:19:15.94 bitrate=N/A speed=19.3x    frame=27898 fps=462 q=-0.0 size=N/A time=00:19:23.57 bitrate=N/A speed=19.3x    frame=28123 fps=462 q=-0.0 size=N/A time=00:19:32.96 bitrate=N/A speed=19.3x    frame=28316 fps=461 q=-0.0 size=N/A time=00:19:41.01 bitrate=N/A speed=19.2x    frame=28501 fps=460 q=-0.0 size=N/A time=00:19:48.72 bitrate=N/A speed=19.2x    frame=28691 fps=460 q=-0.0 size=N/A time=00:19:56.65 bitrate=N/A speed=19.2x    frame=28880 fps=459 q=-0.0 size=N/A time=00:20:04.53 bitrate=N/A speed=19.1x    frame=29055 fps=458 q=-0.0 size=N/A time=00:20:11.83 bitrate=N/A speed=19.1x    frame=29224 fps=457 q=-0.0 size=N/A time=00:20:18.88 bitrate=N/A speed=19.1x    frame=29378 fps=456 q=-0.0 size=N/A time=00:20:25.30 bitrate=N/A speed=  19x    frame=29513 fps=454 q=-0.0 size=N/A time=00:20:30.93 bitrate=N/A speed=18.9x    frame=29749 fps=454 q=-0.0 size=N/A time=00:20:40.78 bitrate=N/A speed=18.9x    frame=30028 fps=455 q=-0.0 size=N/A time=00:20:52.41 bitrate=N/A speed=  19x    frame=30300 fps=455 q=-0.0 size=N/A time=00:21:03.76 bitrate=N/A speed=  19x    frame=30484 fps=455 q=-0.0 size=N/A time=00:21:11.43 bitrate=N/A speed=  19x    frame=30755 fps=455 q=-0.0 size=N/A time=00:21:22.73 bitrate=N/A speed=  19x    frame=31023 fps=456 q=-0.0 size=N/A time=00:21:33.91 bitrate=N/A speed=  19x    frame=31257 fps=456 q=-0.0 size=N/A time=00:21:43.67 bitrate=N/A speed=  19x    frame=31528 fps=456 q=-0.0 size=N/A time=00:21:54.98 bitrate=N/A speed=  19x    frame=31751 fps=456 q=-0.0 size=N/A time=00:22:04.28 bitrate=N/A speed=  19x    frame=32011 fps=456 q=-0.0 size=N/A time=00:22:15.12 bitrate=N/A speed=  19x    frame=32275 fps=457 q=-0.0 size=N/A time=00:22:26.13 bitrate=N/A speed=  19x    frame=32519 fps=457 q=-0.0 size=N/A time=00:22:36.31 bitrate=N/A speed=  19x    frame=32756 fps=457 q=-0.0 size=N/A time=00:22:46.19 bitrate=N/A speed=19.1x    frame=33021 fps=457 q=-0.0 size=N/A time=00:22:57.25 bitrate=N/A speed=19.1x    frame=33276 fps=457 q=-0.0 size=N/A time=00:23:07.88 bitrate=N/A speed=19.1x    frame=33523 fps=457 q=-0.0 size=N/A time=00:23:18.18 bitrate=N/A speed=19.1x    frame=33737 fps=457 q=-0.0 size=N/A time=00:23:27.11 bitrate=N/A speed=19.1x    frame=33948 fps=457 q=-0.0 size=N/A time=00:23:35.91 bitrate=N/A speed=19.1x    frame=34206 fps=457 q=-0.0 size=N/A time=00:23:46.67 bitrate=N/A speed=19.1x    frame=34476 fps=458 q=-0.0 size=N/A time=00:23:57.93 bitrate=N/A speed=19.1x    [Parsed_ssim_10 @ 0000026742f5b180] SSIM Y:0.993111 (21.618288) U:0.993314 (21.748067) V:0.993764 (22.051155) All:0.993253 (21.709209)
[out#0/null @ 00000267431db040] video:14878KiB audio:270788KiB subtitle:0KiB other streams:0KiB global headers:0KiB muxing overhead: unknown
frame=34624 fps=458 q=-0.0 Lsize=N/A time=00:24:04.10 bitrate=N/A speed=19.1x    
